REM DIRINDEX 1\2,1\3,1\4,1\5
REM DIRNAME folder01,folder02,folder03,folder04,folder05
TITLE ""
FILE "1800_173.mp3" MP3
  TRACK 01 AUDIO
    TITLE "2:cjc044_5838"
    INDEX 01 00:00:00
  TRACK 02 AUDIO
    TITLE "0:"
    INDEX 01 00:01:13
  TRACK 03 AUDIO
    TITLE "3:cjc044_5839"
    INDEX 01 00:01:62
  TRACK 04 AUDIO
    TITLE "0:"
    INDEX 01 00:03:00
  TRACK 05 AUDIO
    TITLE "4:cjc044_5840"
    INDEX 01 00:03:45
  TRACK 06 AUDIO
    TITLE "0:"
    INDEX 01 00:05:01
  TRACK 07 AUDIO
    TITLE "2:cjc044_5841"
    INDEX 01 00:06:51
  TRACK 08 AUDIO
    TITLE "0:"
    INDEX 01 00:07:70
  TRACK 09 AUDIO
    TITLE "3:cjc044_5842"
    INDEX 01 00:08:42
  TRACK 10 AUDIO
    TITLE "0:"
    INDEX 01 00:09:53
  TRACK 11 AUDIO
    TITLE "4:cjc044_5843"
    INDEX 01 00:10:23
  TRACK 12 AUDIO
    TITLE "0:"
    INDEX 01 00:11:48
  TRACK 13 AUDIO
    TITLE "2:cjc044_5844"
    INDEX 01 00:13:20
  TRACK 14 AUDIO
    TITLE "0:"
    INDEX 01 00:14:45
  TRACK 15 AUDIO
    TITLE "3:cjc044_5845"
    INDEX 01 00:15:15
  TRACK 16 AUDIO
    TITLE "0:"
    INDEX 01 00:16:28
  TRACK 17 AUDIO
    TITLE "4:cjc044_5846"
    INDEX 01 00:16:73
  TRACK 18 AUDIO
    TITLE "0:"
    INDEX 01 00:18:23
  TRACK 19 AUDIO
    TITLE "2:cjc044_5847"
    INDEX 01 00:19:69
  TRACK 20 AUDIO
    TITLE "0:"
    INDEX 01 00:21:39
  TRACK 21 AUDIO
    TITLE "3:cjc044_5848"
    INDEX 01 00:22:07
  TRACK 22 AUDIO
    TITLE "0:"
    INDEX 01 00:23:38
  TRACK 23 AUDIO
    TITLE "4:cjc044_5849"
    INDEX 01 00:24:08
  TRACK 24 AUDIO
    TITLE "0:"
    INDEX 01 00:25:54
  TRACK 25 AUDIO
    TITLE "2:cjc044_5850"
    INDEX 01 00:27:22
  TRACK 26 AUDIO
    TITLE "0:"
    INDEX 01 00:28:51
  TRACK 27 AUDIO
    TITLE "3:cjc044_5851"
    INDEX 01 00:29:23
  TRACK 28 AUDIO
    TITLE "0:"
    INDEX 01 00:30:44
  TRACK 29 AUDIO
    TITLE "4:cjc044_5852"
    INDEX 01 00:31:12
  TRACK 30 AUDIO
    TITLE "0:"
    INDEX 01 00:32:39
  TRACK 31 AUDIO
    TITLE "2:cjc044_5853"
    INDEX 01 00:34:14
  TRACK 32 AUDIO
    TITLE "0:"
    INDEX 01 00:35:27
  TRACK 33 AUDIO
    TITLE "3:cjc044_5854"
    INDEX 01 00:35:74
  TRACK 34 AUDIO
    TITLE "0:"
    INDEX 01 00:37:12
  TRACK 35 AUDIO
    TITLE "4:cjc044_5855"
    INDEX 01 00:37:57
  TRACK 36 AUDIO
    TITLE "0:"
    INDEX 01 00:38:71
  TRACK 37 AUDIO
    TITLE "2:cjc044_5856"
    INDEX 01 00:40:44
  TRACK 38 AUDIO
    TITLE "0:"
    INDEX 01 00:42:06
  TRACK 39 AUDIO
    TITLE "3:cjc044_5857"
    INDEX 01 00:42:57
  TRACK 40 AUDIO
    TITLE "0:"
    INDEX 01 00:44:14
  TRACK 41 AUDIO
    TITLE "4:cjc044_5858"
    INDEX 01 00:44:63
  TRACK 42 AUDIO
    TITLE "0:"
    INDEX 01 00:46:25
  TRACK 43 AUDIO
    TITLE "2:cjc044_5859"
    INDEX 01 00:47:74
  TRACK 44 AUDIO
    TITLE "0:"
    INDEX 01 00:49:25
  TRACK 45 AUDIO
    TITLE "3:cjc044_5860"
    INDEX 01 00:49:72
  TRACK 46 AUDIO
    TITLE "0:"
    INDEX 01 00:51:36
  TRACK 47 AUDIO
    TITLE "4:cjc044_5861"
    INDEX 01 00:52:06
  TRACK 48 AUDIO
    TITLE "0:"
    INDEX 01 00:53:35
  TRACK 49 AUDIO
    TITLE "2:cjc044_5862"
    INDEX 01 00:55:12
  TRACK 50 AUDIO
    TITLE "0:"
    INDEX 01 00:56:20
  TRACK 51 AUDIO
    TITLE "3:cjc044_5863"
    INDEX 01 00:56:67
  TRACK 52 AUDIO
    TITLE "0:"
    INDEX 01 00:57:74
  TRACK 53 AUDIO
    TITLE "4:cjc044_5864"
    INDEX 01 00:58:50
  TRACK 54 AUDIO
    TITLE "0:"
    INDEX 01 00:59:61
  TRACK 55 AUDIO
    TITLE "2:cjc044_5865"
    INDEX 01 01:01:34
  TRACK 56 AUDIO
    TITLE "0:"
    INDEX 01 01:02:57
  TRACK 57 AUDIO
    TITLE "3:cjc044_5866"
    INDEX 01 01:03:31
  TRACK 58 AUDIO
    TITLE "0:"
    INDEX 01 01:04:43
  TRACK 59 AUDIO
    TITLE "4:cjc044_5867"
    INDEX 01 01:05:19
  TRACK 60 AUDIO
    TITLE "0:"
    INDEX 01 01:06:45
  TRACK 61 AUDIO
    TITLE "2:cjc044_5868"
    INDEX 01 01:08:21
  TRACK 62 AUDIO
    TITLE "0:"
    INDEX 01 01:09:38
  TRACK 63 AUDIO
    TITLE "3:cjc044_5869"
    INDEX 01 01:10:08
  TRACK 64 AUDIO
    TITLE "0:"
    INDEX 01 01:11:17
  TRACK 65 AUDIO
    TITLE "4:cjc044_5870"
    INDEX 01 01:11:68
  TRACK 66 AUDIO
    TITLE "0:"
    INDEX 01 01:13:08
  TRACK 67 AUDIO
    TITLE "2:cjc044_5871"
    INDEX 01 01:14:55
  TRACK 68 AUDIO
    TITLE "0:"
    INDEX 01 01:15:70
  TRACK 69 AUDIO
    TITLE "3:cjc044_5872"
    INDEX 01 01:16:44
  TRACK 70 AUDIO
    TITLE "0:"
    INDEX 01 01:17:39
  TRACK 71 AUDIO
    TITLE "4:cjc044_5873"
    INDEX 01 01:18:13
  TRACK 72 AUDIO
    TITLE "0:"
    INDEX 01 01:19:28
  TRACK 73 AUDIO
    TITLE "2:cjc044_5874"
    INDEX 01 01:21:04
  TRACK 74 AUDIO
    TITLE "0:"
    INDEX 01 01:22:17
  TRACK 75 AUDIO
    TITLE "3:cjc044_5875"
    INDEX 01 01:22:64
  TRACK 76 AUDIO
    TITLE "0:"
    INDEX 01 01:24:02
  TRACK 77 AUDIO
    TITLE "4:cjc044_5876"
    INDEX 01 01:24:49
  TRACK 78 AUDIO
    TITLE "0:"
    INDEX 01 01:25:64
  TRACK 79 AUDIO
    TITLE "2:cjc044_5877"
    INDEX 01 01:27:38
  TRACK 80 AUDIO
    TITLE "0:"
    INDEX 01 01:28:63
  TRACK 81 AUDIO
    TITLE "3:cjc044_5878"
    INDEX 01 01:29:35
  TRACK 82 AUDIO
    TITLE "0:"
    INDEX 01 01:30:66
  TRACK 83 AUDIO
    TITLE "4:cjc044_5879"
    INDEX 01 01:31:38
  TRACK 84 AUDIO
    TITLE "0:"
    INDEX 01 01:32:64
  TRACK 85 AUDIO
    TITLE "2:cjc044_5880"
    INDEX 01 01:34:38
  TRACK 86 AUDIO
    TITLE "0:"
    INDEX 01 01:35:49
  TRACK 87 AUDIO
    TITLE "3:cjc044_5881"
    INDEX 01 01:36:23
  TRACK 88 AUDIO
    TITLE "0:"
    INDEX 01 01:37:34
  TRACK 89 AUDIO
    TITLE "4:cjc044_5882"
    INDEX 01 01:38:08
  TRACK 90 AUDIO
    TITLE "0:"
    INDEX 01 01:39:19
  TRACK 91 AUDIO
    TITLE "2:cjc044_5883"
    INDEX 01 01:40:68
  TRACK 92 AUDIO
    TITLE "0:"
    INDEX 01 01:42:33
  TRACK 93 AUDIO
    TITLE "3:cjc044_5884"
    INDEX 01 01:43:09
  TRACK 94 AUDIO
    TITLE "0:"
    INDEX 01 01:44:52
  TRACK 95 AUDIO
    TITLE "4:cjc044_5885"
    INDEX 01 01:45:24
  TRACK 96 AUDIO
    TITLE "0:"
    INDEX 01 01:46:65
  TRACK 97 AUDIO
    TITLE "2:cjc044_5886"
    INDEX 01 01:48:42
  TRACK 98 AUDIO
    TITLE "0:"
    INDEX 01 01:50:06
  TRACK 99 AUDIO
    TITLE "3:cjc044_5887"
    INDEX 01 01:50:51
  TRACK 100 AUDIO
    TITLE "0:"
    INDEX 01 01:52:02
  TRACK 101 AUDIO
    TITLE "4:cjc044_5888"
    INDEX 01 01:52:55
  TRACK 102 AUDIO
    TITLE "0:"
    INDEX 01 01:54:17
  TRACK 103 AUDIO
    TITLE "2:cjc044_5889"
    INDEX 01 01:55:62
  TRACK 104 AUDIO
    TITLE "0:"
    INDEX 01 01:57:25
  TRACK 105 AUDIO
    TITLE "3:cjc044_5890"
    INDEX 01 01:57:74
  TRACK 106 AUDIO
    TITLE "0:"
    INDEX 01 01:59:20
  TRACK 107 AUDIO
    TITLE "4:cjc044_5891"
    INDEX 01 01:59:69
  TRACK 108 AUDIO
    TITLE "0:"
    INDEX 01 02:01:37
